<?xml version="1.0" standalone="no"?>
<!DOCTYPE svg PUBLIC "-//W3C//DTD SVG 20010904//EN"
 "http://www.w3.org/TR/2001/REC-SVG-20010904/DTD/svg10.dtd">
<svg version="1.0" xmlns="http://www.w3.org/2000/svg"
 width="894.000000pt" height="894.000000pt" viewBox="0 0 894.000000 894.000000"
 preserveAspectRatio="xMidYMid meet">
<metadata>
Created by potrace 1.11, written by Peter Selinger 2001-2013
</metadata>
<g transform="translate(0.000000,894.000000) scale(0.100000,-0.100000)"
fill="#000000" stroke="none">
<path d="M4375 8900 c-1411 -99 -2607 -869 -3345 -2150 -92 -161 -225 -433
-283 -580 -342 -872 -419 -1960 -211 -3000 167 -839 512 -1567 995 -2099 819
-904 2116 -1254 3404 -921 753 194 1462 611 2031 1192 381 389 659 788 924
1323 349 706 549 1384 615 2084 20 213 20 627 0 833 -102 1066 -588 1945
-1405 2539 -476 347 -1127 618 -1735 723 -305 52 -714 76 -990 56z m675 -1594
c536 -62 972 -227 1345 -509 97 -74 284 -254 370 -357 247 -297 385 -709 385
-1153 0 -311 -55 -556 -185 -822 -262 -537 -764 -934 -1401 -1109 -259 -71
-534 -112 -827 -123 -92 -3 -169 -9 -172 -12 -2 -4 -8 -87 -15 -186 -14 -227
-25 -306 -51 -357 -75 -147 -282 -248 -514 -252 -91 -1 -105 1 -158 28 -67 32
-119 100 -136 177 -20 90 -69 1794 -74 2554 l-2 330 30 54 c51 92 142 150 301
192 102 26 310 36 422 20 133 -20 186 -50 227 -131 46 -91 50 -155 36 -630
-13 -481 -27 -885 -37 -1087 l-6 -133 45 0 c77 0 264 30 384 60 150 39 278 87
453 171 566 272 846 672 867 1234 6 178 -7 277 -54 408 -184 516 -702 872
-1378 947 -118 13 -466 13 -636 0 -769 -60 -1240 -275 -1872 -852 -151 -138
-177 -152 -287 -153 -118 0 -173 27 -213 105 -26 51 -28 62 -24 140 5 100 32
175 101 278 92 138 282 330 491 497 123 99 275 193 465 289 480 244 851 355
1315 396 147 13 646 4 805 -14z m-786 -5235 c89 -43 164 -118 207 -206 32 -66
34 -75 34 -180 0 -101 -2 -114 -28 -163 -38 -73 -97 -128 -175 -165 -58 -27
-80 -32 -168 -35 -259 -10 -419 116 -432 339 -7 120 32 228 116 321 46 51 82
76 151 105 47 20 69 23 142 20 74 -3 97 -8 153 -36z"/>
</g>
</svg>
