<?xml version="1.0" encoding="UTF-8"?>
<svg width="146px" height="103px" viewBox="0 0 146 103" version="1.1" xmlns="http://www.w3.org/2000/svg" xmlns:xlink="http://www.w3.org/1999/xlink">
    <!-- Generator: Sketch 44.1 (41455) - http://www.bohemiancoding.com/sketch -->
    <title>PearsonLogo_Primary_Mono_W_RGB</title>
    <desc>Created with Sketch.</desc>
    <defs></defs>
    <g id="Web" stroke="none" stroke-width="1" fill="none" fill-rule="evenodd">
        <g id="Logo-760px-" transform="translate(-71.000000, -994.000000)">
            <g id="PearsonLogo_Primary_Mono_W_RGB" transform="translate(71.000000, 994.000000)">
                <path d="M89.769925,4.41102071 C103.456817,12.2231746 106.642658,29.7420118 97.1198083,47.4659349 C88.7503583,63.0463609 70.4754167,69.7005266 56.8584833,61.7683077 C43.2385083,53.8345651 40.5803958,31.7032781 46.433475,18.9675414 C54.9318917,0.474470414 74.6476708,-4.223 89.769925,4.41102071" id="Fill-1" fill="#FFFFFF"></path>
                <path d="M72.1501583,50.5726953 C71.73345,50.2472396 71.2650333,50.0238698 70.793575,49.9290976 C70.632975,49.8980148 70.4681167,49.8803402 70.3053875,49.8803402 C69.4150917,49.8803402 68.5424375,50.3709615 67.9715167,51.1958757 C67.4945833,51.8806124 67.2996125,52.6988225 67.4261458,53.4932633 C67.5064458,53.9985118 67.6956375,54.4379379 67.9748625,54.7655266 C68.2884583,55.1357781 68.7684333,55.4182663 69.3630792,55.5883077 C69.7073958,55.6836893 70.0602292,55.7345799 70.4124542,55.7345799 L70.4133667,55.7345799 C71.1813875,55.7345799 71.8724542,55.5038964 72.4093083,55.067213 C73.0337625,54.558003 73.3738208,53.831213 73.3662167,53.022145 C73.3592208,52.0780799 72.9044917,51.1611361 72.1501583,50.5726953 M89.452375,17.8525207 C92.131475,20.7182367 92.9658042,25.066787 92.4998208,28.6333905 C91.9675292,32.7003669 89.5074292,36.4635237 85.4148667,38.9586834 C82.1691042,40.9373195 77.9056,41.7268846 73.7102292,41.7643669 C73.6767708,42.4308195 73.54385,44.7263787 73.4769333,45.0896213 C73.3783833,45.6250385 73.1913208,45.913926 72.9622833,46.213784 C72.5118125,46.8019201 71.7301042,47.1819231 70.9538708,47.4034645 C70.3367167,47.5792959 69.7265583,47.6548698 69.2937292,47.6548698 C69.220425,47.6548698 69.1489458,47.6506036 69.0789875,47.6417663 C68.6227375,47.5899615 68.1163,47.375429 67.8030083,47.0252899 C67.490325,46.6751509 67.3129958,46.2323728 67.2716292,45.7307811 L67.23665,45.277642 C67.1478333,44.8872781 66.661775,25.1256006 66.7560667,25.4769586 C66.8263292,23.1094822 70.6421,22.6962633 72.7125625,23.114358 C74.7872833,23.5333669 74.2619875,26.0586953 74.2060208,29.1633225 C74.2060208,29.1633225 74.1074708,33.2458402 73.91615,37.5596509 C76.5572292,37.4560414 78.655675,36.7018254 80.6196792,35.7242396 C84.5860125,33.7544408 86.6853708,30.7330059 86.6853708,26.2826746 C86.6853708,21.8320385 82.3607292,16.8484231 74.38335,16.8484231 C66.406275,16.8484231 62.9819667,18.8642367 59.1193542,22.0657692 C58.248525,22.7876834 57.5778375,23.5150828 56.9433458,23.9938195 C56.3091583,24.4725562 54.6246833,24.545997 54.1729958,23.4254911 C53.6288417,22.0746065 54.6456708,20.5686124 55.2430542,19.8399941 C56.1811042,18.6960237 58.4952042,16.391932 61.0596333,15.0532367 C63.9969708,13.5167692 67.5907,11.8626746 72.5936333,11.7362101 C77.1199375,11.6216302 84.2663333,11.9888343 89.41405,17.8141243" id="Fill-2" fill="#000000"></path>
                <path d="M99.2568833,95.9134172 C99.2568833,100.014828 96.6389208,102.870488 92.1500292,102.870488 C90.2222208,102.870488 88.1687917,102.374382 86.6175417,101.356876 L85.360725,102.585257 C85.1468958,102.794914 84.9923792,102.870488 84.8171792,102.870488 C84.5811458,102.870488 84.4238917,102.659003 84.4238917,102.282047 L84.4238917,95.8469852 C84.4238917,95.4160917 84.60335,95.1774852 84.9412792,95.1774852 C85.229325,95.1774852 85.3850583,95.4322426 85.5125042,95.7092456 C87.5510292,100.133065 89.5813417,101.670447 92.6290917,101.670447 C94.2673333,101.670447 96.5741333,100.597175 96.5741333,98.2123284 C96.5741333,96.0660888 95.1159583,94.9961686 91.0921375,93.8016124 C86.9998792,92.5863343 84.5136208,91.3079763 84.5136208,87.6633609 C84.5136208,83.7789201 87.481375,81.0500296 91.8619833,81.0500296 C93.60425,81.0500296 95.4316833,81.6686391 96.4974833,82.2576893 L97.3923417,81.3352604 C97.5894417,81.132003 97.75065,81.0500296 97.9091208,81.0500296 C98.190475,81.0500296 98.2680375,81.2663905 98.2680375,81.6692485 L98.2680375,87.3065178 C98.2680375,87.737716 98.0885792,87.9763225 97.75065,87.9763225 C97.4632125,87.9763225 97.3391125,87.7943964 97.1988917,87.5234882 C95.135425,83.5573787 93.547675,82.2503757 91.0982208,82.2503757 C88.9681417,82.2503757 87.4220625,83.6823195 87.4220625,85.6347485 C87.4220625,87.3470473 88.9708792,88.4102633 92.7267292,89.5048669 C97.5118792,90.8996331 99.2568833,92.5906006 99.2568833,95.9134172 Z M29.6185333,89.2434053 C30.0787375,84.7263373 31.8997833,82.2497663 34.6634417,82.2497663 C38.3684958,82.2497663 39.0133292,85.3851716 39.0133292,87.9403639 C39.0133292,88.3953314 38.9932542,88.7960562 38.9628375,89.2434053 L29.6185333,89.2434053 Z M34.917725,81.0494201 C29.4256917,81.0494201 24.9577875,86.0482722 24.9577875,92.1722012 C24.9577875,98.3710947 29.1464667,102.870488 34.917725,102.870488 C39.7250792,102.870488 42.2423625,100.208639 43.3817708,97.9859112 C43.5934708,97.572997 43.5347667,97.1594734 43.2859583,97.0150296 C43.0301542,96.866929 42.7624875,96.9958314 42.6213542,97.1865947 C41.0707125,99.2773728 39.2770417,100.72303 36.5824292,100.72303 C30.4841917,100.72303 29.2854708,94.4427722 29.5424917,90.635429 L42.8157167,90.635429 C43.4794083,90.635429 43.6007708,90.2502456 43.6007708,89.585926 C43.6007708,86.632142 42.0845,81.0494201 34.917725,81.0494201 L34.917725,81.0494201 Z M9.25883333,74.1889497 L12.5201083,74.1889497 C19.0453958,74.1889497 19.9931792,77.8097959 19.9931792,81.7164822 C19.9931792,85.6597367 19.0453958,89.2440148 12.5201083,89.2440148 L9.25883333,89.2440148 L9.25883333,74.1889497 Z M0.739429167,73.8497811 C3.94078333,74.1624379 4.6254625,75.273497 4.6254625,76.8523225 L4.6254625,98.4881124 C4.6254625,100.066633 3.94078333,101.177692 0.740341667,101.490654 C0.392679167,101.525089 0.2874375,101.771618 0.2874375,102.008092 C0.2874375,102.245479 0.452295833,102.525834 0.773191667,102.525834 L13.3903292,102.525834 C13.7106167,102.525834 13.8757792,102.245479 13.8757792,102.008092 C13.8757792,101.771618 13.7705375,101.516861 13.4231792,101.490654 C9.98518333,101.230411 9.25883333,100.135503 9.25883333,98.4881124 L9.25883333,90.6360385 L13.1670708,90.6360385 C18.7351458,90.6360385 25.2145042,89.0215592 25.2145042,81.7158728 C25.2145042,74.5092249 18.2743333,72.8136864 12.4525833,72.8136864 L0.772583333,72.8136864 C0.452295833,72.8136864 0.286829167,73.0949556 0.286829167,73.3320385 C0.286829167,73.5685118 0.392679167,73.8153462 0.739429167,73.8497811 Z M111.943979,101.723775 C107.449612,101.723775 106.230817,97.3526746 106.230817,91.960716 C106.230817,86.5687574 107.449612,82.1970473 111.943979,82.1970473 C116.440475,82.1970473 117.657142,86.5687574 117.657142,91.960716 C117.657142,97.3526746 116.440475,101.723775 111.943979,101.723775 Z M111.943979,81.0500296 C106.041321,81.0500296 101.551517,85.9346065 101.551517,91.960716 C101.551517,97.9859112 106.041321,102.870488 111.943979,102.870488 C117.846942,102.870488 122.33705,97.9859112 122.33705,91.960716 C122.33705,85.9346065 117.846942,81.0500296 111.943979,81.0500296 Z M145.739937,102.041308 C145.739937,102.308254 145.531279,102.525834 145.2554,102.525834 L137.530783,102.525834 C137.271025,102.525834 137.04655,102.307645 137.04655,102.040698 C137.04655,101.781065 137.240912,101.56958 137.4882,101.547944 C138.896796,101.427879 139.121879,101.071036 139.121879,99.9870976 L139.121879,88.548003 C139.121879,84.8265947 138.19995,83.3775858 135.538187,83.3775858 C133.369783,83.3775858 131.13355,85.3245296 129.858179,87.9269556 L129.858179,99.9870976 C129.858179,101.081701 130.0349,101.452867 131.700212,101.557391 C131.953887,101.573846 132.152812,101.785941 132.152812,102.041308 C132.152812,102.308254 131.936246,102.525834 131.669187,102.525834 L123.724658,102.525834 C123.4576,102.525834 123.241033,102.308254 123.241033,102.041308 C123.241033,101.785941 123.439958,101.573846 123.693633,101.557391 C125.440767,101.447382 125.719079,101.086577 125.719079,99.9870976 L125.719992,84.4798077 C125.721208,83.5845 125.478483,82.7205799 123.657742,82.4624704 C123.35905,82.4207219 123.251679,82.1577367 123.251679,81.9407663 C123.251679,81.7237959 123.397375,81.4413077 123.724658,81.4327751 L129.252279,81.2868077 C129.632792,81.2868077 129.858179,81.5455266 129.858179,81.8779911 L129.858179,85.2117781 C131.438629,82.9457781 133.801396,81.0500296 137.231179,81.0500296 C141.141546,81.0500296 143.260979,83.3391893 143.260979,87.3308964 L143.260979,99.9870976 C143.260979,101.087796 143.539596,101.448601 145.286425,101.558305 C145.540708,101.573846 145.739937,101.785941 145.739937,102.041308 Z M82.9891375,84.2088994 C82.9891375,85.7496331 81.9342875,86.8247337 80.4241,86.8247337 C78.8868417,86.8247337 77.8122208,85.7496331 77.8122208,84.2088994 C77.8122208,83.9181834 77.8669708,83.5592071 77.9506167,83.2599586 C76.2269042,83.6350858 74.5670667,85.4500799 73.7844458,87.2403905 L73.7844458,99.9870976 C73.7844458,101.144476 74.3018333,101.469018 76.2992958,101.564399 C76.5575333,101.577808 76.7591958,101.790512 76.7591958,102.049536 C76.7591958,102.311607 76.5447583,102.525834 76.2822625,102.525834 L67.6518375,102.525834 C67.3847792,102.525834 67.1676042,102.308254 67.1676042,102.041308 C67.1676042,101.785941 67.3665292,101.573846 67.6202042,101.557391 C69.3676417,101.447382 69.6462583,101.087186 69.6462583,99.9870976 L69.6471708,84.4798077 C69.6483875,83.5845 69.4056625,82.7205799 67.5849208,82.4624704 C67.2862292,82.4207219 67.1788583,82.1577367 67.1788583,81.9407663 C67.1788583,81.7237959 67.3245542,81.4413077 67.6518375,81.4327751 L73.1794583,81.2868077 C73.5599708,81.2868077 73.7844458,81.5455266 73.7844458,81.8779911 L73.7844458,84.9914556 C75.4862583,82.2138077 77.4593875,81.0500296 79.5213333,81.0500296 C82.0812,81.0500296 82.9891375,82.7516627 82.9891375,84.2088994 Z M58.2348375,97.9319734 C57.7031542,98.7322041 55.9009667,100.758074 53.8292875,100.758074 C51.17665,100.758074 50.5978208,98.7882751 50.5978208,97.1360089 C50.5978208,94.417784 52.6746708,92.8136657 58.2348375,91.4368787 L58.2348375,97.9319734 Z M64.573975,101.119488 C64.3251667,101.166112 64.1009958,101.230411 63.8975083,101.230411 C62.7282917,101.230411 62.3736333,100.252521 62.3736333,98.7340325 L62.3736333,87.4625414 C62.3736333,83.2072396 59.8408375,81.0500296 54.8452042,81.0500296 C50.3703042,81.0500296 46.8647833,83.1721953 46.8647833,85.8806686 C46.8647833,87.2736065 47.6884667,88.4465266 49.2716542,88.4465266 C51.1739125,88.4465266 51.8604167,86.8923846 51.8604167,86.019932 C51.8604167,85.2678491 51.6271208,84.4142899 50.7496,83.5296479 C51.5386083,82.7022959 52.9356458,82.2131982 54.5288708,82.2131982 C57.1264542,82.2131982 58.2348375,83.7560651 58.2348375,87.3729497 L58.2348375,90.1253047 C53.3827708,91.3869024 46.1433,92.3410237 46.1433,97.8725503 C46.1433,100.230275 47.6303708,102.870488 51.8220917,102.870488 C54.1051667,102.870488 56.3347083,101.814281 58.438325,99.5537663 C58.642725,101.96421 59.6075417,102.870488 61.7765542,102.870488 C62.8733792,102.870488 64.0842667,102.525834 64.8559375,102.077876 C65.1363792,101.915757 65.2586542,101.653991 65.1628417,101.370284 C65.0664208,101.085663 64.7993625,101.07713 64.573975,101.119488 L64.573975,101.119488 Z" id="Fill-3" fill="#FFFFFF"></path>
            </g>
        </g>
    </g>
</svg>