<?xml version="1.0" encoding="UTF-8"?>
<svg width="146px" height="44px" viewBox="0 0 146 44" version="1.1" xmlns="http://www.w3.org/2000/svg" xmlns:xlink="http://www.w3.org/1999/xlink">
    <!-- Generator: Sketch 44.1 (41455) - http://www.bohemiancoding.com/sketch -->
    <title>PearsonLogo_Horizontal_Blk_RGB Copy 3</title>
    <desc>Created with Sketch.</desc>
    <defs></defs>
    <g id="Web" stroke="none" stroke-width="1" fill="none" fill-rule="evenodd">
        <g id="Logo-760px-" transform="translate(-314.000000, -2059.000000)">
            <g id="PearsonLogo_Horizontal_Blk_RGB-Copy-3" transform="translate(314.000000, 2059.000000)">
                <path d="M87.2488961,28.7986247 C86.9007889,29.258275 85.764675,30.6307157 84.3513185,30.6307157 C82.4400445,30.6307157 82.0388925,29.3533614 82.0388925,28.2821593 C82.0388925,26.5202982 83.4555642,25.7055533 87.2488961,24.813674 L87.2488961,28.7986247 Z M91.9713425,30.9566136 C91.9162255,30.8199022 91.7670367,30.7421759 91.6203344,30.7751208 L91.5739201,30.7863655 C91.1381646,30.8763228 90.8029043,30.8510716 90.5679319,30.7001564 C90.2349509,30.4851269 90.0727081,30.0010146 90.0727081,29.2202009 L90.0727081,22.1573689 C90.0727081,19.3986783 88.344812,18 84.9364701,18 C81.8836947,18 79.492323,19.3755971 79.492323,21.1317373 C79.492323,22.034664 80.0700151,22.687249 80.9234992,22.7852946 C81.4810922,22.8492116 82.0127845,22.6089309 82.3992248,22.2208914 C83.1497272,21.4667099 83.0523401,20.5702932 82.1424958,19.607395 C82.6806114,19.0712021 83.6337619,18.7539842 84.7209752,18.7539842 C86.4927991,18.7539842 87.2488961,19.7543647 87.2488961,22.0989756 L87.2488961,23.8837206 C86.8334468,24.006031 86.4447271,24.1218313 85.7338012,24.2806375 C84.2993097,24.601209 82.331261,25.0279144 80.8468327,25.8089253 C79.6214127,26.4482929 79,27.4579452 79,28.8100667 C79,30.2815393 80.0144837,32 82.8739352,32 C84.4750209,32 85.9099268,31.2765933 87.3823372,29.7258162 C87.5091476,31.3377485 88.1508666,31.9416067 89.7074028,31.9416067 C90.4556259,31.9416067 91.0544531,31.7755013 91.7662079,31.4476306 C91.9591173,31.3588569 92.0509098,31.1458002 91.9713425,30.9566136 L91.9713425,30.9566136 Z" id="Fill-1" fill="#FFFFFF"></path>
                <path d="M122.863567,18.7461513 C121.135352,18.7461513 119.152066,19.455405 119.152066,24.9855533 C119.152066,29.2033969 120.455438,31.2534583 123.136842,31.2534583 C125.70329,31.2534583 126.84773,29.3203369 126.84773,24.9855533 C126.84773,20.7868418 125.544562,18.7461513 122.863567,18.7461513 Z M123.014932,32 C119.015838,32 116,29.0093429 116,25.04334 C116,21.159527 119.147157,18 123.014932,18 C126.931798,18 130,21.042587 130,24.9273762 C130,29.2957385 126.374408,32 123.014932,32 L123.014932,32 Z" id="Fill-2" fill="#FFFFFF"></path>
                <path d="M53.0819285,29.2849418 L53.0819285,23.9801737 L55.1347672,23.9801737 C58.1980696,23.9801737 60.5284358,23.335204 62.0616311,22.0628789 C63.6637964,20.7330002 64,19.0479682 64,17.868835 C64,13.0183516 59.2956208,12.0004096 55.3488834,12.0004096 L55.3649421,12 L47.3598799,12 C47.1787046,12 47.0312939,12.1466492 47.0312939,12.3268884 L47.0312939,12.348599 L47.031088,12.3416353 C47.031088,12.5081517 47.133205,12.6564395 47.2902921,12.7137883 C48.0032578,12.9745207 49.9399797,12.6074881 49.9399797,14.6738899 L49.9401855,29.2820744 C49.9401855,30.3446666 49.4664535,31.0942979 47.3012038,31.2976815 C47.129705,31.3140669 47,31.4539571 47,31.6229313 L47,31.6731116 C47,31.8533508 47.1474107,32 47.328586,32 L55.8808797,32 C56.0618491,32 56.2094657,31.8533508 56.2094657,31.6731116 L56.2094657,31.6284614 C56.2094657,31.4594871 56.0748196,31.3165247 55.9033207,31.3032115 C53.5511311,31.1160085 53.0788403,30.3909553 53.0788403,29.2820744 L53.0788403,23.9893905 M60.4604951,17.8077994 C60.4604951,21.182779 59.6244126,23.0421104 55.3488834,23.0421104 L53.0819285,23.0421104 L53.0819285,12.8442569 L55.4409122,12.8442569 C59.864058,12.8442569 60.4604951,15.3532689 60.4604951,17.8077994" id="Fill-3" fill="#FFFFFF"></path>
                <path d="M67.2503719,23.26121 C67.5712368,20.3605889 68.7983597,18.7705813 70.7254551,18.7705813 C71.6901677,18.7705813 72.4049657,19.0167609 72.9105133,19.5235783 C73.605191,20.2197195 73.8987348,21.4769939 73.7833081,23.26121 L67.2503719,23.26121 Z M70.9450834,18 C67.1154604,18 64,21.1987719 64,25.130612 C64,29.1109064 66.9210353,32 70.9450834,32 C74.3267664,32 75.9719667,30.136264 76.9152883,28.7342125 C77.008265,28.5964692 76.9676009,28.4135929 76.822947,28.3180518 L76.7784707,28.2889401 C76.632546,28.1930082 76.4294374,28.2197753 76.3169759,28.3506803 C75.0733332,29.7886819 73.9853577,30.6211988 72.1059154,30.6211988 C69.728762,30.6211988 67.189164,29.1103203 67.189164,24.8699742 L67.189164,24.8385179 C67.18514,24.6511479 67.1900112,24.3944177 67.1974239,24.154881 L76.9229128,24.154881 C76.9495986,24.154881 76.9714132,24.1357337 76.9733193,24.1115065 L76.9788259,24.0394111 C77.1160671,22.2999372 76.5827748,20.7380643 75.4774324,19.6408066 C74.3955988,18.5673854 72.8281262,18 70.9450834,18 L70.9450834,18 Z" id="Fill-4" fill="#FFFFFF"></path>
                <path d="M109.597305,23.4181006 C109.596486,23.4177099 109.595462,23.4177099 109.594439,23.4175145 C107.022975,22.7293839 106.02105,22.0326565 106.02105,20.9330542 C106.02105,19.6798828 107.063519,18.7705813 108.49955,18.7705813 C110.189082,18.7705813 110.912524,19.5409671 112.695839,22.3859047 L112.719592,22.4238085 C112.728192,22.4380713 112.744369,22.4470588 112.761569,22.4470588 L113.006266,22.4470588 C113.186256,22.4470588 113.333074,22.3069709 113.333074,22.1352313 L113.333074,18.0468914 C113.333074,18.0209057 113.310959,18 113.28393,18 L112.961217,18 C112.862929,18 112.770784,18.0416161 112.708739,18.1141023 L112.139487,18.775075 C111.420755,18.3970135 110.250717,18 109.076378,18 C106.123229,18 104.060406,19.7416231 104.060406,22.2354616 C104.060406,24.5759263 105.68687,25.4531854 108.495454,26.1768753 C111.224384,26.8896239 112.191498,27.6310934 112.191498,29.0093085 C112.191498,30.5405066 110.635883,31.2294187 109.53137,31.2294187 C107.476943,31.2294187 106.608117,30.5006489 104.639282,27.1252529 L104.615939,27.0850045 C104.607339,27.0701556 104.590957,27.0607773 104.573143,27.0607773 L104.326808,27.0607773 C104.146613,27.0607773 104,27.2006699 104,27.3726048 L104,31.9531086 C104,31.9788989 104.02191,32 104.048939,32 L104.383119,32 C104.469326,32 104.553485,31.9663945 104.614301,31.9087572 L105.514457,31.0494732 C106.568187,31.6735189 108.143665,32 109.167295,32 C110.703456,32 111.966459,31.5357756 112.819928,30.6571488 C113.580842,29.8742586 114,28.7646919 114,27.532817 C114,25.3996511 112.806618,24.284223 109.597305,23.4181006" id="Fill-5" fill="#FFFFFF"></path>
                <path d="M94.5666513,30.3396677 C94.5666513,31.0589991 94.3902327,31.2943986 93.2860324,31.3666302 C93.1257391,31.3771764 93,31.5158691 93,31.6830166 C93,31.8577256 93.1370652,32 93.3058051,32 L98.7611533,32 C98.9270137,32 99.0621593,31.8599144 99.0621593,31.6881902 C99.0621593,31.5186549 98.9346925,31.3795642 98.7719036,31.3712068 C97.5091377,31.3083275 97.182408,31.0964083 97.182408,30.3394687 L97.182408,22.0477564 C98.0800507,20.5000497 98.7258312,19.6899811 99.815058,19.4450303 C99.7622668,19.6406328 99.7277125,19.8752363 99.7277125,20.0654661 C99.7277125,21.0727291 100.406704,21.7759427 101.378446,21.7759427 C102.333103,21.7759427 103,21.0727291 103,20.0654661 C103,19.1125261 102.426016,18 100.808109,18 C99.4816095,18 98.2138524,18.7881803 97.1255855,20.6741618 L97.1255855,18.5412397 C97.1255855,18.3239479 96.9526223,18.1492389 96.7429932,18.1548105 L93.3056131,18.2499254 C93.1391768,18.2549 93.0088305,18.3935927 93.0088305,18.5661128 L93.0088305,18.6122774 C93.0088305,18.7684807 93.1186363,18.9025968 93.2637641,18.9236892 C94.4096214,19.0922296 94.5676111,19.6573475 94.5668433,20.2425629 L94.5666513,30.3396677" id="Fill-6" fill="#FFFFFF"></path>
                <path d="M135.091765,18.0937665 C135.176477,18.0937665 135.256688,18.1255552 135.317869,18.1833345 C135.38171,18.243513 135.417109,18.3244841 135.417723,18.4108533 L135.430818,20.7874045 C135.430818,20.7874045 136.623951,18 140.497183,18 L140.53115,18 C142.945449,18 144.330105,19.5042628 144.330105,22.1265262 L144.330105,30.3319957 C144.330105,31.0551375 144.51815,31.291653 145.694709,31.3638272 C145.86577,31.3742235 146,31.5135737 146,31.6817137 C146,31.8570511 145.853697,32 145.674042,32 L140.450325,32 C140.270261,32 140.123754,31.8566512 140.123754,31.680914 C140.123754,31.5105748 140.25471,31.3714245 140.421679,31.3574295 C141.370497,31.2782578 141.522119,31.0439414 141.522119,30.3319957 L141.522119,22.9266405 C141.522119,20.4815137 140.810659,19.5292538 138.98464,19.5292538 C137.750992,19.5292538 136.740175,20.5818779 136.109744,21.4647626 C136.109744,21.4647626 135.787878,21.8594216 135.438594,22.6013567 L135.477267,30.3315959 C135.477267,31.042342 135.624797,31.2764584 136.54681,31.3564298 C136.713165,31.3708247 136.843712,31.509975 136.843712,31.6733167 C136.843712,31.8566512 136.697205,32 136.517549,32 L131.325958,32 C131.146303,32 131,31.8570511 131,31.6815137 C131,31.5135737 131.134025,31.3742235 131.304882,31.3636273 C132.48185,31.2910532 132.669895,31.0545377 132.669895,30.3319957 L132.669895,20.2028133 C132.669895,19.6116244 132.500675,19.0408283 131.272962,18.870689 C131.117656,18.8490968 131,18.713945 131,18.5562014 L131,18.5094181 C131,18.3354802 131.139959,18.1953302 131.317978,18.190332 L135.091765,18.0937665" id="Fill-7" fill="#FFFFFF"></path>
                <path d="M31.3185715,2.83290353 C40.5843066,8.12972339 42.7410538,20.0081043 36.2942865,32.0251249 C30.6283465,42.5890118 18.256599,47.1006891 9.03822423,41.7224623 C-0.182209686,36.3434091 -1.9814895,21.3378879 1.98071492,12.7025591 C7.73396257,0.16383196 21.0811265,-3.02116094 31.3185715,2.83290353" id="Fill-8" fill="#007E98"></path>
                <path d="M19.2120832,34.4816605 C18.9314287,34.25983 18.6159486,34.1075812 18.2984199,34.0429845 C18.1902552,34.0217984 18.0792226,34.0097515 17.969624,34.0097515 C17.3700068,34.0097515 16.7822714,34.3443666 16.3977544,34.9064202 C16.0765382,35.3731366 15.9452247,35.9308284 16.0304453,36.4723191 C16.0843228,36.8166964 16.2119488,37.1162091 16.4000078,37.3394935 C16.6112156,37.5918568 16.9344803,37.7846084 17.3349762,37.9003009 C17.5666698,37.9655207 17.804509,38 18.0417337,38 L18.0423483,38 C18.5596128,38 19.0250485,37.8427662 19.3866215,37.5451229 C19.8071934,37.1980454 20.0362238,36.7026655 20.0311024,36.1512049 C20.0263907,35.5077304 19.7201291,34.8827417 19.2120832,34.4816605 M30.8651826,12.1795963 C32.6695652,14.1328677 33.2314886,17.0970464 32.9176473,19.527835 C32.5591471,22.2998852 30.9022617,24.8648521 28.1459075,26.5655525 C25.9598759,27.9141904 23.0883919,28.4523578 20.262796,28.4779057 C20.2402617,28.9321597 20.150739,30.4968124 20.1056705,30.7443984 C20.0392967,31.1093387 19.9133095,31.3062444 19.759052,31.5106275 C19.4556584,31.911501 18.9291753,32.1705109 18.4063796,32.3215135 C17.9907243,32.4413601 17.5797806,32.4928713 17.2882688,32.4928713 C17.2388982,32.4928713 17.1907567,32.4901711 17.1436396,32.4841476 C16.8363537,32.4488375 16.4952664,32.3024045 16.2842634,32.0637498 C16.0736702,31.8250951 15.9542384,31.5232976 15.9263778,31.1814128 L15.9028193,30.8725533 C15.8430009,30.6064814 15.5156391,17.1369261 15.5791448,17.3766193 C15.6264668,15.7627402 18.1964009,15.4810903 19.5908642,15.7660635 C20.9881955,16.0516599 20.634407,17.7731309 20.5967133,19.8890365 C20.5967133,19.8890365 20.5303395,22.6716797 20.4014843,25.6119722 C22.1802598,25.541352 23.5935699,25.0272785 24.9163331,24.3609562 C27.5876715,23.0183418 29.0015962,20.9589324 29.0015962,17.9255874 C29.0015962,14.8922425 26.0889359,11.4952036 20.716145,11.4952036 C15.343559,11.4952036 13.0372761,12.8691817 10.435794,15.0515533 C9.84928773,15.5434022 9.39757751,16.0391975 8.9702453,16.3655043 C8.54311795,16.6920189 7.40861854,16.7418684 7.10440554,15.9781318 C6.73791593,15.0573691 7.42275369,14.0308839 7.82509332,13.5342578 C8.45687305,12.7545278 10.015427,11.1840593 11.7425784,10.2716049 C13.7208848,9.22455671 16.1412731,8.09691842 19.510765,8.01072024 C22.5592457,7.93262262 27.3723666,8.18290889 30.8393705,12.1534253" id="Fill-9" fill="#FFFFFF"></path>
            </g>
        </g>
    </g>
</svg>