<?xml version="1.0" encoding="UTF-8"?>
<svg width="146px" height="44px" viewBox="0 0 146 44" version="1.1" xmlns="http://www.w3.org/2000/svg" xmlns:xlink="http://www.w3.org/1999/xlink">
    <!-- Generator: Sketch 44.1 (41455) - http://www.bohemiancoding.com/sketch -->
    <title>PearsonLogo_Horizontal_Mono_Blk_RGB</title>
    <desc>Created with Sketch.</desc>
    <defs></defs>
    <g id="Web" stroke="none" stroke-width="1" fill="none" fill-rule="evenodd">
        <g id="Logo-760px-" transform="translate(-551.000000, -1402.000000)">
            <g id="PearsonLogo_Horizontal_Mono_Blk_RGB" transform="translate(551.000000, 1402.000000)">
                <path d="M31.4753729,3.00598131 C40.7546215,8.27693458 42.9145141,20.0973084 36.4583446,32.0556449 C30.7841412,42.5679439 18.3943503,47.0575888 9.16253107,41.7056262 C-0.0713502825,36.3528411 -1.87325424,21.4205981 2.09472881,12.8274393 C7.85636723,0.349943925 21.2229972,-2.81949533 31.4753729,3.00598131" id="Fill-1" fill="#000000"></path>
                <path d="M19.5297684,34.1518131 C19.2472542,33.9322243 18.9296836,33.781514 18.6100508,33.7175701 C18.5011695,33.6965981 18.3894011,33.6846729 18.2790763,33.6846729 C17.6754859,33.6846729 17.0838559,34.0159065 16.696791,34.5722804 C16.3734463,35.0342804 16.2412627,35.5863364 16.327048,36.1223551 C16.3812825,36.4632523 16.5097542,36.7597383 16.6990593,36.9807664 C16.9116667,37.2305794 17.2370734,37.4213832 17.6402232,37.5359065 C17.873452,37.6004673 18.1128672,37.6345981 18.3516638,37.6345981 L18.3522825,37.6345981 C18.8729746,37.6345981 19.3414944,37.4789533 19.7054633,37.1843178 C20.128822,36.8407477 20.3593701,36.3503738 20.3542147,35.804486 C20.3494718,35.167514 20.0411808,34.5488411 19.5297684,34.1518131 M31.2600847,12.0751215 C33.0764237,14.0086542 33.6420706,16.9428785 33.3261497,19.3491028 C32.965274,22.0931402 31.2974096,24.6321869 28.522791,26.3157009 C26.322274,27.6507103 23.4317627,28.1834393 20.5874435,28.208729 C20.5647599,28.6583925 20.4746441,30.2072336 20.4292768,30.4523178 C20.3624633,30.8135701 20.2356412,31.008486 20.0803616,31.2108037 C19.7749576,31.6076262 19.2449859,31.8640187 18.718726,32.0134953 C18.3003164,32.1321308 17.8866497,32.1831215 17.5932062,32.1831215 C17.5435085,32.1831215 17.495048,32.1804486 17.4476186,32.174486 C17.1382966,32.1395327 16.7949492,31.9945794 16.582548,31.7583364 C16.3705593,31.5220935 16.2503362,31.2233458 16.222291,30.8849159 L16.1985763,30.5791776 C16.1383616,30.3157944 15.8088305,16.9823551 15.8727571,17.2196262 C15.9203927,15.6220561 18.5073559,15.3432523 19.9110593,15.6253458 C21.3176497,15.9080561 20.9615169,17.6121308 20.9235734,19.7066542 C20.9235734,19.7066542 20.8567599,22.4611776 20.7270508,25.371757 C22.517613,25.3018505 23.9402881,24.792972 25.2718164,24.1333832 C27.9608559,22.8043364 29.3841497,20.7657383 29.3841497,17.7630467 C29.3841497,14.7603551 26.4521893,11.3976449 21.0437966,11.3976449 C15.6356102,11.3976449 13.3140452,12.7577383 10.6953249,14.9180561 C10.1049322,15.4049346 9.65022881,15.8957196 9.22006497,16.218729 C8.79010734,16.5419439 7.6480904,16.5912897 7.34186158,15.835271 C6.9729435,14.9238131 7.66231921,13.9077009 8.06732486,13.4160935 C8.70329096,12.644243 10.2721723,11.0896449 12.0107684,10.1864112 C14.0021836,9.14994393 16.4386102,8.03370093 19.8304294,7.94837383 C22.8991102,7.87106542 27.7441243,8.11882243 31.2341017,12.049215" id="Fill-2" fill="#FFFFFF"></path>
                <path d="M114.44276,27.5098692 C114.44276,30.2771402 112.668076,32.2040935 109.62476,32.2040935 C108.317565,32.2040935 106.925616,31.8693645 105.873715,31.1826355 L105.021842,32.0116449 C104.876873,32.1528972 104.772116,32.2040935 104.65313,32.2040935 C104.493107,32.2040935 104.386494,32.0614019 104.386494,31.8068598 L104.386494,27.4652523 C104.386494,27.1743178 104.508161,27.0133271 104.737266,27.0133271 C104.932551,27.0133271 105.038133,27.185215 105.124743,27.3723178 C106.506588,30.3569159 107.883071,31.3942056 109.949342,31.3942056 C111.06022,31.3942056 112.624153,30.6702617 112.624153,29.0611776 C112.624153,27.6128785 111.635353,26.8911963 108.907545,26.0850093 C106.132927,25.2652523 104.447328,24.4025234 104.447328,21.9436636 C104.447328,19.322785 106.459571,17.4815701 109.429475,17.4815701 C110.610672,17.4815701 111.849404,17.8987477 112.57198,18.2963925 L113.17887,17.6740187 C113.312291,17.5366729 113.421585,17.4815701 113.529229,17.4815701 C113.719771,17.4815701 113.772356,17.6275514 113.772356,17.8991589 L113.772356,21.7028972 C113.772356,21.9938318 113.650689,22.1546168 113.421585,22.1546168 C113.226918,22.1546168 113.142782,22.0320748 113.047511,21.8492897 C111.648757,19.1731028 110.57211,18.2912523 108.911669,18.2912523 C107.467342,18.2912523 106.419359,19.2576075 106.419359,20.574729 C106.419359,21.730243 107.469198,22.4474019 110.015743,23.1861495 C113.259706,24.127215 114.44276,25.2679252 114.44276,27.5098692 Z M67.2305254,23.0095327 C67.542322,19.9620187 68.7771356,18.2908411 70.650596,18.2908411 C73.1627034,18.2908411 73.5998785,20.4065421 73.5998785,22.1305607 C73.5998785,22.4373271 73.5860621,22.7077009 73.5654407,23.0095327 L67.2305254,23.0095327 Z M70.8229915,17.4811589 C67.0997853,17.4811589 64.0704915,20.8539439 64.0704915,24.9858318 C64.0704915,29.1682991 66.910274,32.2040935 70.8229915,32.2040935 C74.0822147,32.2040935 75.7888475,30.4079065 76.5613277,28.9084112 C76.7048531,28.6298131 76.6650537,28.3508037 76.4963701,28.2531402 C76.3231497,28.153215 76.1414746,28.2403925 76.0459972,28.3688972 C74.9945085,29.7797757 73.7786667,30.754972 71.9518107,30.754972 C67.8172062,30.754972 67.0045141,26.5178131 67.1787655,23.9489533 L76.1777684,23.9489533 C76.6277288,23.9489533 76.7100085,23.6890654 76.7100085,23.2408411 C76.7100085,21.2478879 75.6820282,17.4811589 70.8229915,17.4811589 L70.8229915,17.4811589 Z M53.4271328,12.8521121 L55.6381667,12.8521121 C60.0622966,12.8521121 60.7046554,15.2951402 60.7046554,17.9312336 C60.7046554,20.5915888 60.0622966,23.0101495 55.6381667,23.0101495 L53.4271328,23.0101495 L53.4271328,12.8521121 Z M47.6514718,12.623271 C49.8216751,12.8344299 50.2858644,13.5840748 50.2858644,14.6491215 L50.2858644,29.2470467 C50.2858644,30.3122991 49.8216751,31.0619439 47.6518842,31.2728972 C47.416387,31.2961308 47.3450367,31.4626729 47.3450367,31.6222243 C47.3450367,31.7821869 47.4565989,31.9715514 47.6743616,31.9715514 L56.2281469,31.9715514 C56.445291,31.9715514 56.5574718,31.7821869 56.5574718,31.6222243 C56.5574718,31.4626729 56.4861215,31.290785 56.2506243,31.2728972 C53.9197797,31.097514 53.4271328,30.3587664 53.4271328,29.2470467 L53.4271328,23.9493645 L56.0767853,23.9493645 C59.8517514,23.9493645 64.2447429,22.8600561 64.2447429,17.9306168 C64.2447429,13.0684112 59.5395424,11.9244112 55.5925932,11.9244112 L47.6737429,11.9244112 C47.4565989,11.9244112 47.3446243,12.1139813 47.3446243,12.2741495 C47.3446243,12.4337009 47.416387,12.6000374 47.6514718,12.623271 Z M123.044387,31.4301869 C119.997359,31.4301869 119.17085,28.4811589 119.17085,24.8429346 C119.17085,21.2049159 119.997359,18.255271 123.044387,18.255271 C126.092653,18.255271 126.917718,21.2049159 126.917718,24.8429346 C126.917718,28.4811589 126.092653,31.4301869 123.044387,31.4301869 Z M123.044387,17.4815701 C119.042379,17.4815701 115.99865,20.7772523 115.99865,24.8429346 C115.99865,28.9084112 119.042379,32.2040935 123.044387,32.2040935 C127.046189,32.2040935 130.090537,28.9084112 130.090537,24.8429346 C130.090537,20.7772523 127.046189,17.4815701 123.044387,17.4815701 Z M145.956695,31.6446355 C145.956695,31.8247477 145.815438,31.9715514 145.628401,31.9715514 L140.391373,31.9715514 C140.215266,31.9715514 140.062873,31.8241308 140.062873,31.6440187 C140.062873,31.4690467 140.194644,31.3263551 140.362503,31.311757 C141.317277,31.2305421 141.470082,30.9897757 141.470082,30.2584299 L141.470082,22.5403364 C141.470082,20.0294579 140.844839,19.052 139.04046,19.052 C137.57015,19.052 136.054266,20.3654206 135.189401,22.1213084 L135.189401,30.2584299 C135.189401,30.9971776 135.309212,31.2474019 136.438237,31.3181308 C136.61022,31.329028 136.745291,31.4721308 136.745291,31.6446355 C136.745291,31.8247477 136.598466,31.9715514 136.417203,31.9715514 L131.031082,31.9715514 C130.850025,31.9715514 130.703201,31.8247477 130.703201,31.6446355 C130.703201,31.4721308 130.838065,31.329028 131.010048,31.3181308 C132.194545,31.2437009 132.383438,31.0002617 132.383438,30.2584299 L132.38385,19.7954766 C132.384675,19.1914019 132.220116,18.6087103 130.985921,18.4345607 C130.783212,18.4061869 130.710624,18.2289533 130.710624,18.0825607 C130.710624,17.9361682 130.809401,17.7455701 131.031082,17.7396075 L134.778828,17.6411215 C135.036596,17.6411215 135.189401,17.8156822 135.189401,18.0402056 L135.189401,20.2893458 C136.260893,18.7604486 137.862768,17.4815701 140.188251,17.4815701 C142.839141,17.4815701 144.276045,19.0258879 144.276045,21.7193458 L144.276045,30.2584299 C144.276045,31.0012897 144.464938,31.244729 145.649435,31.3185421 C145.821831,31.329028 145.956695,31.4721308 145.956695,31.6446355 Z M103.41378,19.6126916 C103.41378,20.652243 102.698627,21.3778318 101.674771,21.3778318 C100.632562,21.3778318 99.9040056,20.652243 99.9040056,19.6126916 C99.9040056,19.4167477 99.9411243,19.1745421 99.9978333,18.9726355 C98.8294209,19.2255327 97.7039011,20.4503364 97.1735169,21.6580748 L97.1735169,30.2584299 C97.1735169,31.0395327 97.5242881,31.2582991 98.8782938,31.3226542 C99.0535763,31.3317009 99.1902966,31.4754206 99.1902966,31.6499813 C99.1902966,31.8270093 99.044709,31.9715514 98.866952,31.9715514 L93.0156102,31.9715514 C92.8345537,31.9715514 92.6873164,31.8247477 92.6873164,31.6446355 C92.6873164,31.4721308 92.8221808,31.329028 92.9941638,31.3181308 C94.1790734,31.2437009 94.3679661,31.0006729 94.3679661,30.2584299 L94.3683785,19.7954766 C94.3692034,19.1914019 94.2046441,18.6087103 92.9704492,18.4345607 C92.7677401,18.4061869 92.6951525,18.2289533 92.6951525,18.0825607 C92.6951525,17.9361682 92.7939294,17.7455701 93.0156102,17.7396075 L96.7633559,17.6411215 C97.0211243,17.6411215 97.1735169,17.8156822 97.1735169,18.0402056 L97.1735169,20.1406916 C98.3272881,18.266785 99.6647966,17.4815701 101.062932,17.4815701 C102.798435,17.4815701 103.41378,18.6296822 103.41378,19.6126916 Z M86.6312034,28.8718131 C86.2709463,29.4117383 85.0489181,30.7786168 83.644596,30.7786168 C81.8459915,30.7786168 81.453565,29.4495701 81.453565,28.3347664 C81.453565,26.5009533 82.8615989,25.4184299 86.6312034,24.4897009 L86.6312034,28.8718131 Z M90.9289237,31.0226729 C90.7602401,31.0541308 90.6084661,31.097514 90.4703023,31.097514 C89.6778192,31.097514 89.4371667,30.4377196 89.4371667,29.4131776 L89.4371667,21.8081682 C89.4371667,18.9370654 87.7200169,17.4815701 84.3333531,17.4815701 C81.2995226,17.4815701 78.9228983,18.913215 78.9228983,20.7408598 C78.9228983,21.680486 79.4813277,22.4720748 80.5544689,22.4720748 C81.8441356,22.4720748 82.3097684,21.423271 82.3097684,20.8346168 C82.3097684,20.3271776 82.1513955,19.751271 81.5564661,19.1543925 C82.0915932,18.5963738 83.0385311,18.2663738 84.1186836,18.2663738 C85.8799633,18.2663738 86.6312034,19.3071589 86.6312034,21.747514 L86.6312034,23.6045607 C83.3418729,24.4559813 78.4335508,25.0997383 78.4335508,28.8317196 C78.4335508,30.4225047 79.4419407,32.2040935 82.2835791,32.2040935 C83.8316328,32.2040935 85.3429802,31.4914579 86.7693672,29.9662617 C86.9079435,31.5926168 87.5618503,32.2040935 89.0325734,32.2040935 C89.7761836,32.2040935 90.5969181,31.9715514 91.1200847,31.6691028 C91.3104209,31.5597196 91.393113,31.3833084 91.3281554,31.1918879 C91.2627853,30.9998505 91.0817288,30.9938879 90.9289237,31.0226729 L90.9289237,31.0226729 Z" id="Fill-3" fill="#000000"></path>
            </g>
        </g>
    </g>
</svg>